<?xml version="1.0" encoding="UTF-8" standalone="no"?>
<!-- Generator: Adobe Illustrator 16.0.4, SVG Export Plug-In . SVG Version: 6.00 Build 0)  -->

<svg
   xmlns:dc="http://purl.org/dc/elements/1.1/"
   xmlns:cc="http://creativecommons.org/ns#"
   xmlns:rdf="http://www.w3.org/1999/02/22-rdf-syntax-ns#"
   xmlns:svg="http://www.w3.org/2000/svg"
   xmlns="http://www.w3.org/2000/svg"
   xmlns:sodipodi="http://sodipodi.sourceforge.net/DTD/sodipodi-0.dtd"
   xmlns:inkscape="http://www.inkscape.org/namespaces/inkscape"
   version="1.1"
   x="0px"
   y="0px"
   width="198.42599"
   height="198.42599"
   viewBox="0 0 198.42599 198.42599"
   enable-background="new 0 0 1190.551 841.89"
   xml:space="preserve"
   id="svg3819"
   sodipodi:docname="icon.svg"
   inkscape:version="0.92.3 (2405546, 2018-03-11)"><metadata
   id="metadata3825"><rdf:RDF><cc:Work
       rdf:about=""><dc:format>image/svg+xml</dc:format><dc:type
         rdf:resource="http://purl.org/dc/dcmitype/StillImage" /><dc:title></dc:title></cc:Work></rdf:RDF></metadata><defs
   id="defs3823">
	

		
		
	</defs><sodipodi:namedview
   pagecolor="#ffffff"
   bordercolor="#666666"
   borderopacity="1"
   objecttolerance="10"
   gridtolerance="10"
   guidetolerance="10"
   inkscape:pageopacity="0"
   inkscape:pageshadow="2"
   inkscape:window-width="1920"
   inkscape:window-height="1017"
   id="namedview3821"
   showgrid="false"
   inkscape:zoom="0.99062821"
   inkscape:cx="285.56798"
   inkscape:cy="101.44607"
   inkscape:window-x="1920"
   inkscape:window-y="30"
   inkscape:window-maximized="1"
   inkscape:current-layer="svg3819"
   fit-margin-top="0"
   fit-margin-left="0"
   fit-margin-right="0"
   fit-margin-bottom="0" />
<g
   id="artwork"
   transform="translate(-203.20946,-323.96508)">
</g>
<g
   id="g3804"
   transform="translate(-202.2,-325.984)">
			<g
   id="g3792">
				<path
   d="m 301.414,325.984 c -54.706,0 -99.214,44.511 -99.214,99.21 0,54.706 44.508,99.216 99.214,99.216 54.711,0 99.212,-44.51 99.212,-99.216 -10e-4,-54.699 -44.501,-99.21 -99.212,-99.21 z"
   id="path3790"
   inkscape:connector-curvature="0"
   style="fill:#e95420" />
			</g>
			<g
   id="g3802">
				<path
   d="m 348.183,377.717 v 0 H 254.64 v 0 c -2.348,0 -4.252,1.903 -4.252,4.253 v 5.669 c 0,2.348 1.904,4.251 4.252,4.251 0.001,0 0.004,0 0.006,0 h 93.53 c 0.002,0 0.004,0 0.006,0 2.348,0 4.252,-1.903 4.252,-4.251 v -5.669 c 10e-4,-2.35 -1.902,-4.253 -4.251,-4.253 z"
   id="path3794"
   inkscape:connector-curvature="0"
   style="fill:#ffffff" />
				<path
   d="m 348.183,404.647 v -0.002 H 254.64 v 0.002 c -2.348,0 -4.252,1.903 -4.252,4.251 v 5.668 c 0,2.349 1.904,4.253 4.252,4.253 0.001,0 0.004,-0.001 0.006,-0.001 h 93.53 c 0.002,0 0.004,0.001 0.006,0.001 2.348,0 4.252,-1.905 4.252,-4.253 v -5.668 c 10e-4,-2.348 -1.902,-4.251 -4.251,-4.251 z"
   id="path3796"
   inkscape:connector-curvature="0"
   style="fill:#ffffff" />
				<path
   d="m 348.183,431.575 v 0 H 254.64 v 0 c -2.348,0 -4.252,1.905 -4.252,4.253 v 5.669 c 0,2.349 1.904,4.252 4.252,4.252 h 93.543 v 0 c 2.349,0 4.251,-1.903 4.251,-4.252 v -5.669 c 10e-4,-2.348 -1.902,-4.251 -4.251,-4.253 z"
   id="path3798"
   inkscape:connector-curvature="0"
   style="fill:#ffffff" />
				<path
   d="m 348.183,458.505 v 0 H 254.64 v 0 c -2.348,0 -4.252,1.903 -4.252,4.252 v 5.67 c 0,2.347 1.904,4.252 4.252,4.252 h 93.543 v 0 c 2.349,0 4.251,-1.905 4.251,-4.252 v -5.67 c 10e-4,-2.349 -1.902,-4.252 -4.251,-4.252 z"
   id="path3800"
   inkscape:connector-curvature="0"
   style="fill:#ffffff" />
			</g>
		</g>
</svg>